<svg width="58" height="58" viewBox="0 0 58 58" fill="none" xmlns="http://www.w3.org/2000/svg">
<path d="M29 5.4375C15.984 5.4375 5.4375 15.984 5.4375 29C5.4375 42.016 15.984 52.5625 29 52.5625C42.016 52.5625 52.5625 42.016 52.5625 29C52.5625 15.984 42.016 5.4375 29 5.4375ZM29 50.6027C17.0941 50.6027 7.39727 40.9172 7.39727 29C7.39727 17.0941 17.0828 7.39727 29 7.39727C40.9059 7.39727 50.6027 17.0828 50.6027 29C50.6027 40.9059 40.9059 50.6027 29 50.6027Z" fill="#2E368A"/>
<path d="M29 29H18.125V30.9598H30.9598V14.5H29V29Z" fill="#2E368A"/>
</svg>
