<svg width="50" height="74" viewBox="0 0 50 74" fill="none" xmlns="http://www.w3.org/2000/svg">
<g filter="url(#filter0_d_2106_710)">
<path d="M38.5 34.5C38.5 42.889 36.7675 50.36 34.0848 55.6417C31.3316 61.0619 27.9819 63.5 25 63.5C22.0181 63.5 18.6684 61.0619 15.9152 55.6417C13.2325 50.36 11.5 42.889 11.5 34.5C11.5 26.111 13.2325 18.64 15.9152 13.3583C18.6684 7.93808 22.0181 5.5 25 5.5C27.9819 5.5 31.3316 7.93808 34.0848 13.3583C36.7675 18.64 38.5 26.111 38.5 34.5Z" stroke="url(#paint0_linear_2106_710)" stroke-width="5" shape-rendering="crispEdges"/>
</g>
<circle cx="25" cy="25" r="24.5" stroke="black"/>
<defs>
<filter id="filter0_d_2106_710" x="5" y="3" width="40" height="71" filterUnits="userSpaceOnUse" color-interpolation-filters="sRGB">
<feFlood flood-opacity="0" result="BackgroundImageFix"/>
<feColorMatrix in="SourceAlpha" type="matrix" values="0 0 0 0 0 0 0 0 0 0 0 0 0 0 0 0 0 0 127 0" result="hardAlpha"/>
<feOffset dy="4"/>
<feGaussianBlur stdDeviation="2"/>
<feComposite in2="hardAlpha" operator="out"/>
<feColorMatrix type="matrix" values="0 0 0 0 0 0 0 0 0 0 0 0 0 0 0 0 0 0 0.25 0"/>
<feBlend mode="normal" in2="BackgroundImageFix" result="effect1_dropShadow_2106_710"/>
<feBlend mode="normal" in="SourceGraphic" in2="effect1_dropShadow_2106_710" result="shape"/>
</filter>
<linearGradient id="paint0_linear_2106_710" x1="25" y1="3" x2="25" y2="66" gradientUnits="userSpaceOnUse">
<stop/>
<stop offset="0.54" stop-opacity="0"/>
</linearGradient>
</defs>
</svg>
