<svg width="58" height="74" viewBox="0 0 58 74" fill="none" xmlns="http://www.w3.org/2000/svg">
<g filter="url(#filter0_d_2234_321)">
<path d="M42.5 34.5C42.5 42.889 40.7675 50.36 38.0848 55.6417C35.3316 61.0619 31.9819 63.5 29 63.5C26.0181 63.5 22.6684 61.0619 19.9152 55.6417C17.2325 50.36 15.5 42.889 15.5 34.5C15.5 26.111 17.2325 18.64 19.9152 13.3583C22.6684 7.93808 26.0181 5.5 29 5.5C31.9819 5.5 35.3316 7.93808 38.0848 13.3583C40.7675 18.64 42.5 26.111 42.5 34.5Z" stroke="url(#paint0_linear_2234_321)" stroke-width="5"/>
<circle cx="29" cy="25" r="24.5" stroke="white"/>
</g>
<defs>
<filter id="filter0_d_2234_321" x="0" y="0" width="58" height="74" filterUnits="userSpaceOnUse" color-interpolation-filters="sRGB">
<feFlood flood-opacity="0" result="BackgroundImageFix"/>
<feColorMatrix in="SourceAlpha" type="matrix" values="0 0 0 0 0 0 0 0 0 0 0 0 0 0 0 0 0 0 127 0" result="hardAlpha"/>
<feOffset dy="4"/>
<feGaussianBlur stdDeviation="2"/>
<feComposite in2="hardAlpha" operator="out"/>
<feColorMatrix type="matrix" values="0 0 0 0 0 0 0 0 0 0 0 0 0 0 0 0 0 0 0.25 0"/>
<feBlend mode="normal" in2="BackgroundImageFix" result="effect1_dropShadow_2234_321"/>
<feBlend mode="normal" in="SourceGraphic" in2="effect1_dropShadow_2234_321" result="shape"/>
</filter>
<linearGradient id="paint0_linear_2234_321" x1="29" y1="3" x2="29" y2="66" gradientUnits="userSpaceOnUse">
<stop stop-color="white"/>
<stop offset="0.54" stop-color="white" stop-opacity="0"/>
</linearGradient>
</defs>
</svg>
