<svg width="53" height="53" viewBox="0 0 53 53" fill="none" xmlns="http://www.w3.org/2000/svg">
<path d="M46.375 28.2446C46.0276 32.0036 44.6169 35.586 42.3078 38.5725C39.9987 41.559 36.8869 43.8261 33.3363 45.1086C29.7858 46.3911 25.9435 46.6359 22.2589 45.8143C18.5743 44.9927 15.1999 43.1388 12.5306 40.4694C9.86121 37.8001 8.00728 34.4257 7.18571 30.7411C6.36414 27.0565 6.60891 23.2142 7.89139 19.6637C9.17386 16.1131 11.441 13.0013 14.4275 10.6922C17.414 8.38314 20.9964 6.97238 24.7554 6.625C22.5546 9.60242 21.4956 13.2709 21.7709 16.9631C22.0463 20.6554 23.6377 24.1262 26.2558 26.7442C28.8738 29.3623 32.3446 30.9537 36.0369 31.2291C39.7291 31.5044 43.3976 30.4454 46.375 28.2446Z" stroke="#2E368A" stroke-width="2" stroke-linecap="round" stroke-linejoin="round"/>
</svg>
