<svg width="24" height="21" viewBox="0 0 24 21" fill="none" xmlns="http://www.w3.org/2000/svg">
<path d="M7.12543 4.125C5.88277 4.125 4.87543 5.13234 4.87543 6.375C4.87543 7.61766 5.88277 8.625 7.12543 8.625C8.36808 8.625 9.37543 7.61766 9.37543 6.375C9.37543 5.13234 8.36761 4.125 7.12543 4.125ZM20.9582 0H2.95824C1.3434 0 0 1.34297 0 3V18C0 19.657 1.34297 21 2.95781 21H20.9578C22.6148 21 23.9578 19.657 23.9578 18V3C23.9582 1.34297 22.6551 0 20.9582 0ZM21.7082 17.6859L15.2957 8.97187C15.1786 8.75625 14.9114 8.625 14.6254 8.625C14.3389 8.625 14.0714 8.75475 13.9125 8.97089L8.91558 15.7256L7.17699 13.5646C7.01569 13.3641 6.75821 13.2455 6.48464 13.2455C6.2108 13.2455 5.95355 13.364 5.79183 13.5646L2.25183 17.962C2.25183 17.9606 2.25183 17.9634 2.25183 17.962L2.24996 3C2.24996 2.58647 2.58643 2.25 2.99996 2.25H21C21.4135 2.25 21.75 2.58647 21.75 3V17.6859H21.7082Z" fill="#FBF9F9"/>
</svg>
