<svg width="30" height="30" viewBox="0 0 30 30" fill="none" xmlns="http://www.w3.org/2000/svg">
<path d="M29.6373 10.3383L26.8791 7.57995C26.6565 7.3604 26.3598 7.2322 26.0474 7.22063C25.735 7.20906 25.4297 7.31496 25.1915 7.51744C24.8238 7.83043 24.3519 7.99385 23.8694 7.97533C23.3869 7.95681 22.929 7.75769 22.5864 7.41743C22.2463 7.07483 22.0473 6.61699 22.0288 6.13461C22.0103 5.65223 22.1736 5.18049 22.4864 4.81282C22.6889 4.57464 22.7948 4.26924 22.7832 3.95684C22.7716 3.64444 22.6434 3.34771 22.4239 3.12516L19.6632 0.36366C19.4298 0.130788 19.1137 0 18.7841 0C18.4544 0 18.1383 0.130788 17.905 0.36366L13.5079 4.76031C13.2364 5.03277 13.0317 5.36437 12.9098 5.72915C12.886 5.79928 12.8464 5.863 12.7941 5.91536C12.7417 5.96772 12.678 6.00731 12.6079 6.03105C12.243 6.15301 11.9113 6.35799 11.6391 6.62986L0.363641 17.9059C0.130781 18.1392 0 18.4554 0 18.785C0 19.1147 0.130781 19.4309 0.363641 19.6642L3.125 22.4226C3.34753 22.6421 3.64425 22.7703 3.95663 22.7819C4.26902 22.7934 4.5744 22.6875 4.81257 22.4851C5.17938 22.1695 5.65188 22.0043 6.13538 22.0225C6.61887 22.0406 7.07765 22.2408 7.41977 22.583C7.7619 22.9251 7.9621 23.3839 7.98025 23.8674C7.99841 24.351 7.83318 24.8235 7.51767 25.1903C7.3152 25.4285 7.20931 25.7339 7.22088 26.0463C7.23245 26.3587 7.36064 26.6554 7.58017 26.878L10.3384 29.6363C10.5717 29.8692 10.8879 30 11.2175 30C11.5471 30 11.8633 29.8692 12.0966 29.6363L23.372 18.3603C23.6438 18.0882 23.8487 17.7568 23.9708 17.3921C23.9945 17.3217 24.0341 17.2578 24.0866 17.2053C24.139 17.1528 24.203 17.1132 24.2733 17.0896C24.6379 16.9676 24.9693 16.7628 25.2415 16.4914L29.6379 12.0941C29.8699 11.8608 30.0001 11.5451 30 11.2161C29.9999 10.8871 29.8695 10.5715 29.6373 10.3383ZM15.3636 8.48503C15.2707 8.57792 15.1605 8.65161 15.0391 8.70188C14.9178 8.75215 14.7877 8.77803 14.6564 8.77803C14.525 8.77803 14.395 8.75215 14.2736 8.70188C14.1523 8.65161 14.042 8.57792 13.9492 8.48503L13.2298 7.76559C13.0468 7.57709 12.9453 7.32416 12.9473 7.06146C12.9493 6.79875 13.0545 6.54738 13.2403 6.36166C13.4261 6.17594 13.6775 6.07078 13.9402 6.06892C14.2029 6.06706 14.4558 6.16864 14.6442 6.35171L15.3636 7.07052C15.4565 7.16339 15.5302 7.27365 15.5804 7.39501C15.6307 7.51636 15.6566 7.64642 15.6566 7.77778C15.6566 7.90913 15.6307 8.0392 15.5804 8.16055C15.5302 8.2819 15.4565 8.39216 15.3636 8.48503ZM18.1137 11.2353C17.9262 11.4227 17.6719 11.528 17.4068 11.528C17.1417 11.528 16.8874 11.4227 16.6999 11.2353L16.0124 10.5477C15.9195 10.4548 15.8458 10.3446 15.7956 10.2232C15.7453 10.1019 15.7194 9.97181 15.7194 9.84047C15.7194 9.70912 15.7453 9.57905 15.7956 9.4577C15.8458 9.33635 15.9195 9.22609 16.0124 9.13321C16.1999 8.94564 16.4543 8.84026 16.7196 8.84026C16.8509 8.84026 16.981 8.86613 17.1023 8.9164C17.2237 8.96666 17.3339 9.04034 17.4268 9.13321L18.1143 9.82078C18.2075 9.91364 18.2815 10.024 18.332 10.1455C18.3825 10.267 18.4085 10.3973 18.4086 10.5288C18.4086 10.6604 18.3827 10.7907 18.3323 10.9123C18.282 11.0338 18.2081 11.1442 18.115 11.2372L18.1137 11.2353ZM20.8638 13.9855C20.771 14.0784 20.6607 14.1521 20.5394 14.2024C20.418 14.2527 20.288 14.2785 20.1566 14.2785C20.0253 14.2785 19.8952 14.2527 19.7739 14.2024C19.6525 14.1521 19.5423 14.0784 19.4494 13.9855L18.7619 13.298C18.5789 13.1095 18.4774 12.8565 18.4794 12.5938C18.4814 12.3311 18.5866 12.0798 18.7724 11.894C18.9582 11.7083 19.2096 11.6032 19.4723 11.6013C19.735 11.5994 19.9879 11.701 20.1763 11.8841L20.8638 12.5717C20.9573 12.6644 21.0315 12.7746 21.0823 12.8961C21.1331 13.0176 21.1593 13.1479 21.1596 13.2795C21.1599 13.4112 21.1342 13.5416 21.084 13.6633C21.0338 13.785 20.96 13.8955 20.8669 13.9887L20.8638 13.9855ZM23.6408 16.7695C23.5479 16.8624 23.4377 16.9361 23.3163 16.9864C23.195 17.0367 23.0649 17.0625 22.9336 17.0625C22.8022 17.0625 22.6722 17.0367 22.5508 16.9864C22.4295 16.9361 22.3192 16.8624 22.2264 16.7695L21.5113 16.0507C21.4165 15.9581 21.341 15.8476 21.2893 15.7256C21.2375 15.6035 21.2106 15.4725 21.2099 15.3399C21.2093 15.2074 21.235 15.076 21.2856 14.9535C21.3362 14.831 21.4106 14.7197 21.5045 14.6262C21.5985 14.5327 21.7101 14.4589 21.8328 14.4089C21.9556 14.3589 22.0871 14.3338 22.2196 14.3351C22.3521 14.3364 22.4831 14.364 22.6049 14.4163C22.7266 14.4687 22.8368 14.5447 22.9289 14.64L23.6446 15.3582C23.7374 15.4511 23.811 15.5614 23.8613 15.6827C23.9115 15.8041 23.9373 15.9342 23.9372 16.0655C23.9372 16.1969 23.9112 16.3269 23.8609 16.4483C23.8106 16.5696 23.7369 16.6798 23.6439 16.7727L23.6408 16.7695Z" fill="white"/>
</svg>
